<?xml version="1.0" encoding="UTF-8"?>
<svg xmlns="http://www.w3.org/2000/svg" xmlns:xlink="http://www.w3.org/1999/xlink" width="96px" height="96px" viewBox="0 0 96 96" version="1.1">
<g id="surface1">
<rect x="0" y="0" width="96" height="96" style="fill:rgb(100%,100%,100%);fill-opacity:1;stroke:none;"/>
<path style=" stroke:none;fill-rule:nonzero;fill:rgb(0%,0%,0%);fill-opacity:1;" d="M 1.921875 96 L 0 96 L 0 76.800781 L 3.839844 76.800781 L 3.839844 96 Z M 59.519531 96 L 57.601562 96 L 57.601562 76.800781 L 76.800781 76.800781 L 76.800781 57.601562 L 96 57.601562 L 96 61.441406 L 80.640625 61.441406 L 80.640625 80.640625 L 61.441406 80.640625 L 61.441406 96 Z M 30.71875 80.640625 L 19.199219 80.640625 L 19.199219 61.441406 L 0 61.441406 L 0 38.398438 L 3.839844 38.398438 L 3.839844 57.601562 L 23.039062 57.601562 L 23.039062 76.800781 L 38.398438 76.800781 L 38.398438 57.601562 L 57.601562 57.601562 L 57.601562 38.398438 L 76.800781 38.398438 L 76.800781 23.039062 L 57.601562 23.039062 L 57.601562 3.839844 L 38.398438 3.839844 L 38.398438 0 L 61.441406 0 L 61.441406 19.199219 L 80.640625 19.199219 L 80.640625 42.238281 L 61.441406 42.238281 L 61.441406 61.441406 L 42.238281 61.441406 L 42.238281 80.640625 Z M 30.71875 42.238281 L 19.199219 42.238281 L 19.199219 19.199219 L 42.238281 19.199219 L 42.238281 42.238281 Z M 30.71875 38.398438 L 38.398438 38.398438 L 38.398438 23.039062 L 23.039062 23.039062 L 23.039062 38.398438 Z M 1.921875 19.199219 L 0 19.199219 L 0 0 L 19.199219 0 L 19.199219 3.839844 L 3.839844 3.839844 L 3.839844 19.199219 Z M 86.398438 3.839844 L 76.800781 3.839844 L 76.800781 0 L 96 0 L 96 3.839844 Z M 86.398438 3.839844 "/>
</g>
</svg>
